<svg width="120" height="60" viewBox="0 0 120 60" fill="none" xmlns="http://www.w3.org/2000/svg">
<path d="M0.0136719 47.6991H1.23047L2.87109 51.9716C3.23112 52.9468 3.45443 53.651 3.54102 54.0839H3.5957C3.65495 53.8515 3.77799 53.455 3.96484 52.8944C4.15625 52.3293 4.77604 50.5976 5.82422 47.6991H7.04102L3.82129 56.2304C3.50228 57.0735 3.12858 57.6705 2.7002 58.0214C2.27637 58.3769 1.75456 58.5546 1.13477 58.5546C0.788411 58.5546 0.446615 58.5159 0.109375 58.4384V57.5292C0.360026 57.5839 0.640299 57.6112 0.950195 57.6112C1.72949 57.6112 2.28548 57.1737 2.61816 56.2987L3.03516 55.2323L0.0136719 47.6991ZM12.1475 54.0976L12.3594 53.4618L12.6533 52.6552L14.6836 47.7128H16.126V55.1913H15.1211V49.0048L14.9844 49.4013L14.5879 50.4472L12.6533 55.1913H11.7031L9.76855 50.4335C9.52702 49.8228 9.36068 49.3466 9.26953 49.0048V55.1913H8.25781V47.7128H9.64551L11.6074 52.4638C11.8034 52.9651 11.9834 53.5097 12.1475 54.0976ZM19.6875 47.6991V50.8368H23.8848V47.6991H25.0195V55.1913H23.8848V51.8144H19.6875V55.1913H18.5527V47.6991H19.6875ZM32.0332 55.1913L31.8076 54.1249H31.7529C31.3792 54.5943 31.0055 54.9133 30.6318 55.0819C30.2627 55.246 29.8001 55.328 29.2441 55.328C28.5013 55.328 27.918 55.1366 27.4941 54.7538C27.0749 54.371 26.8652 53.8264 26.8652 53.12C26.8652 51.607 28.0752 50.814 30.4951 50.7411L31.7666 50.7001V50.2353C31.7666 49.6474 31.639 49.2144 31.3838 48.9364C31.1331 48.6539 30.7298 48.5126 30.1738 48.5126C29.5495 48.5126 28.8431 48.704 28.0547 49.0868L27.7061 48.2187C28.0752 48.0181 28.4785 47.8609 28.916 47.747C29.3581 47.633 29.8001 47.5761 30.2422 47.5761C31.1354 47.5761 31.7962 47.7743 32.2246 48.1708C32.6576 48.5673 32.874 49.203 32.874 50.078V55.1913H32.0332ZM29.4697 54.3915C30.1761 54.3915 30.7298 54.1978 31.1309 53.8105C31.5365 53.4231 31.7393 52.8808 31.7393 52.1835V51.5067L30.6045 51.5546C29.7021 51.5865 29.0505 51.7278 28.6494 51.9784C28.2529 52.2245 28.0547 52.6096 28.0547 53.1337C28.0547 53.5439 28.1777 53.856 28.4238 54.0702C28.6745 54.2844 29.0231 54.3915 29.4697 54.3915ZM35.5947 55.1913H34.2686L36.4219 52.0263C35.8431 51.8987 35.3988 51.6526 35.0889 51.288C34.7835 50.9189 34.6309 50.4563 34.6309 49.9003C34.6309 49.2167 34.861 48.6789 35.3213 48.287C35.7816 47.8951 36.4242 47.6991 37.249 47.6991H40.585V55.1913H39.4502V52.1972H37.5566L35.5947 55.1913ZM35.7383 49.914C35.7383 50.7799 36.3672 51.2128 37.625 51.2128H39.4502V48.6835H37.3926C36.2897 48.6835 35.7383 49.0937 35.7383 49.914ZM47.7695 55.1913H46.6348V47.6991H52.9238V55.1913H51.7754V48.6835H47.7695V55.1913ZM61.7969 51.4384C61.7969 52.6597 61.4893 53.6145 60.874 54.3026C60.2588 54.9862 59.4089 55.328 58.3242 55.328C57.6543 55.328 57.0596 55.1708 56.54 54.8564C56.0205 54.5419 55.6195 54.0907 55.3369 53.5028C55.0544 52.9149 54.9131 52.2268 54.9131 51.4384C54.9131 50.217 55.2184 49.2668 55.8291 48.5878C56.4398 47.9042 57.2874 47.5624 58.3721 47.5624C59.4202 47.5624 60.252 47.911 60.8672 48.6083C61.487 49.3056 61.7969 50.2489 61.7969 51.4384ZM56.0889 51.4384C56.0889 52.3954 56.2803 53.1246 56.6631 53.6259C57.0459 54.1272 57.6087 54.3778 58.3516 54.3778C59.0944 54.3778 59.6572 54.1295 60.04 53.6327C60.4274 53.1314 60.6211 52.4 60.6211 51.4384C60.6211 50.4859 60.4274 49.7636 60.04 49.2714C59.6572 48.7746 59.0898 48.5263 58.3379 48.5263C57.5951 48.5263 57.0345 48.7701 56.6562 49.2577C56.278 49.7454 56.0889 50.4722 56.0889 51.4384ZM70.3008 57.7821H69.2002V55.1913H63.9639V57.7821H62.8701V54.2138H63.458C64.0687 53.3843 64.5472 52.4114 64.8936 51.2948C65.2399 50.1783 65.4199 48.9797 65.4336 47.6991H69.2275V54.2138H70.3008V57.7821ZM68.1338 54.2138V48.5946H66.4521C66.3929 49.6064 66.1969 50.6317 65.8643 51.6708C65.5361 52.7053 65.126 53.553 64.6338 54.2138H68.1338ZM71.415 50.7001C71.415 49.0595 71.6566 47.7812 72.1396 46.8651C72.6227 45.9446 73.3883 45.3704 74.4365 45.1425C75.7399 44.8645 76.8883 44.6389 77.8818 44.4657L78.0938 45.4638C76.5124 45.7281 75.3822 45.9377 74.7031 46.0927C74.0423 46.2431 73.5456 46.5985 73.2129 47.1591C72.8848 47.7196 72.7048 48.483 72.6729 49.4491H72.7549C73.0374 49.0663 73.402 48.7655 73.8486 48.5468C74.2952 48.328 74.7624 48.2187 75.25 48.2187C76.1706 48.2187 76.8883 48.5172 77.4033 49.1142C77.9183 49.7112 78.1758 50.5383 78.1758 51.5956C78.1758 52.7668 77.8773 53.6829 77.2803 54.3437C76.6833 54.9999 75.8516 55.328 74.7852 55.328C73.7324 55.328 72.9076 54.9247 72.3105 54.1181C71.7135 53.3114 71.415 52.1721 71.415 50.7001ZM74.8877 54.3778C76.2777 54.3778 76.9727 53.4914 76.9727 51.7187C76.9727 50.0279 76.3415 49.1825 75.0791 49.1825C74.7327 49.1825 74.3978 49.2554 74.0742 49.4013C73.7552 49.5426 73.4613 49.7317 73.1924 49.9687C72.9281 50.2056 72.723 50.4495 72.5771 50.7001C72.5771 51.8987 72.7663 52.8124 73.1445 53.4413C73.5228 54.0657 74.1038 54.3778 74.8877 54.3778ZM86.625 51.4384C86.625 52.6597 86.3174 53.6145 85.7021 54.3026C85.0869 54.9862 84.237 55.328 83.1523 55.328C82.4824 55.328 81.8877 55.1708 81.3682 54.8564C80.8486 54.5419 80.4476 54.0907 80.165 53.5028C79.8825 52.9149 79.7412 52.2268 79.7412 51.4384C79.7412 50.217 80.0465 49.2668 80.6572 48.5878C81.2679 47.9042 82.1156 47.5624 83.2002 47.5624C84.2484 47.5624 85.0801 47.911 85.6953 48.6083C86.3151 49.3056 86.625 50.2489 86.625 51.4384ZM80.917 51.4384C80.917 52.3954 81.1084 53.1246 81.4912 53.6259C81.874 54.1272 82.4368 54.3778 83.1797 54.3778C83.9225 54.3778 84.4854 54.1295 84.8682 53.6327C85.2555 53.1314 85.4492 52.4 85.4492 51.4384C85.4492 50.4859 85.2555 49.7636 84.8682 49.2714C84.4854 48.7746 83.918 48.5263 83.166 48.5263C82.4232 48.5263 81.8626 48.7701 81.4844 49.2577C81.1061 49.7454 80.917 50.4722 80.917 51.4384ZM92.1074 55.328C91.6198 55.328 91.1732 55.2392 90.7676 55.0614C90.3665 54.8791 90.0293 54.6011 89.7559 54.2274H89.6738C89.7285 54.6649 89.7559 55.0797 89.7559 55.4716V58.5546H88.6211V47.6991H89.5439L89.7012 48.7245H89.7559C90.0475 48.3144 90.387 48.0181 90.7744 47.8358C91.1618 47.6536 91.6061 47.5624 92.1074 47.5624C93.1009 47.5624 93.8665 47.9019 94.4043 48.581C94.9466 49.26 95.2178 50.2125 95.2178 51.4384C95.2178 52.6689 94.9421 53.6259 94.3906 54.3095C93.8438 54.9885 93.0827 55.328 92.1074 55.328ZM91.9434 48.5263C91.1777 48.5263 90.624 48.7382 90.2822 49.162C89.9404 49.5858 89.765 50.2603 89.7559 51.1855V51.4384C89.7559 52.4911 89.9313 53.2454 90.2822 53.7011C90.6331 54.1523 91.196 54.3778 91.9707 54.3778C92.6178 54.3778 93.1237 54.1158 93.4883 53.5917C93.8574 53.0676 94.042 52.3453 94.042 51.4247C94.042 50.4905 93.8574 49.775 93.4883 49.2782C93.1237 48.7769 92.6087 48.5263 91.9434 48.5263ZM101.575 47.6991H102.819L99.5859 51.3153L103.086 55.1913H101.76L98.3418 51.3974V55.1913H97.207V47.6991H98.3418V51.3427L101.575 47.6991ZM109.088 55.1913L108.862 54.1249H108.808C108.434 54.5943 108.06 54.9133 107.687 55.0819C107.317 55.246 106.855 55.328 106.299 55.328C105.556 55.328 104.973 55.1366 104.549 54.7538C104.13 54.371 103.92 53.8264 103.92 53.12C103.92 51.607 105.13 50.814 107.55 50.7411L108.821 50.7001V50.2353C108.821 49.6474 108.694 49.2144 108.438 48.9364C108.188 48.6539 107.785 48.5126 107.229 48.5126C106.604 48.5126 105.898 48.704 105.109 49.0868L104.761 48.2187C105.13 48.0181 105.533 47.8609 105.971 47.747C106.413 47.633 106.855 47.5761 107.297 47.5761C108.19 47.5761 108.851 47.7743 109.279 48.1708C109.712 48.5673 109.929 49.203 109.929 50.078V55.1913H109.088ZM106.524 54.3915C107.231 54.3915 107.785 54.1978 108.186 53.8105C108.591 53.4231 108.794 52.8808 108.794 52.1835V51.5067L107.659 51.5546C106.757 51.5865 106.105 51.7278 105.704 51.9784C105.308 52.2245 105.109 52.6096 105.109 53.1337C105.109 53.5439 105.232 53.856 105.479 54.0702C105.729 54.2844 106.078 54.3915 106.524 54.3915Z" fill="white"/>
<path d="M18.4043 31.5546C18.4043 33.8749 17.5664 35.703 15.8906 37.039C14.2266 38.3749 11.9062 39.0429 8.92969 39.0429C6.1875 39.0429 3.76172 38.5273 1.65234 37.496V32.4335C3.38672 33.2069 4.85156 33.7519 6.04688 34.0683C7.25391 34.3847 8.35547 34.5429 9.35156 34.5429C10.5469 34.5429 11.4609 34.3144 12.0938 33.8573C12.7383 33.4003 13.0605 32.7206 13.0605 31.8183C13.0605 31.3144 12.9199 30.869 12.6387 30.4823C12.3574 30.0839 11.9414 29.703 11.3906 29.3398C10.8516 28.9765 9.74414 28.3964 8.06836 27.5995C6.49805 26.8612 5.32031 26.1523 4.53516 25.4726C3.75 24.7929 3.12305 24.0019 2.6543 23.0995C2.18555 22.1972 1.95117 21.1425 1.95117 19.9355C1.95117 17.662 2.71875 15.8749 4.25391 14.5741C5.80078 13.2733 7.93359 12.623 10.6523 12.623C11.9883 12.623 13.2598 12.7812 14.4668 13.0976C15.6855 13.414 16.957 13.8593 18.2812 14.4335L16.5234 18.6698C15.1523 18.1073 14.0156 17.7148 13.1133 17.4921C12.2227 17.2694 11.3438 17.1581 10.4766 17.1581C9.44531 17.1581 8.6543 17.3983 8.10352 17.8788C7.55273 18.3593 7.27734 18.9862 7.27734 19.7597C7.27734 20.2401 7.38867 20.662 7.61133 21.0253C7.83398 21.3769 8.18555 21.7226 8.66602 22.0624C9.1582 22.3905 10.3125 22.9882 12.1289 23.8554C14.5312 25.0038 16.1777 26.1581 17.0684 27.3183C17.959 28.4667 18.4043 29.8788 18.4043 31.5546ZM32.8634 38.6913L26.6759 18.5292H26.5177C26.7403 22.6308 26.8516 25.3671 26.8516 26.7382V38.6913H21.9825V12.9921H29.4005L35.4825 32.6444H35.588L42.0391 12.9921H49.4571V38.6913H44.377V26.5273C44.377 25.953 44.3829 25.2909 44.3946 24.5409C44.418 23.7909 44.5001 21.7987 44.6407 18.5644H44.4825L37.8555 38.6913H32.8634ZM70.5959 38.6913L68.7326 32.5741H59.3634L57.5002 38.6913H51.6291L60.6994 12.8866H67.3615L76.467 38.6913H70.5959ZM67.4318 28.0038C65.7091 22.4608 64.7365 19.3261 64.5138 18.5995C64.3029 17.873 64.1505 17.2987 64.0568 16.8769C63.6701 18.3769 62.5627 22.0858 60.7345 28.0038H67.4318ZM84.0881 24.4003H85.8459C87.5686 24.4003 88.8401 24.1132 89.6604 23.539C90.4807 22.9648 90.8909 22.0624 90.8909 20.8319C90.8909 19.6132 90.469 18.746 89.6252 18.2304C88.7932 17.7148 87.4983 17.4569 85.7405 17.4569H84.0881V24.4003ZM84.0881 28.83V38.6913H78.6389V12.9921H86.1272C89.6194 12.9921 92.2034 13.6308 93.8791 14.9081C95.5549 16.1737 96.3928 18.1015 96.3928 20.6913C96.3928 22.203 95.9768 23.5507 95.1448 24.7343C94.3127 25.9062 93.135 26.8261 91.6116 27.494C95.4788 33.2714 97.9983 37.0038 99.1702 38.6913H93.1233L86.9885 28.83H84.0881ZM111.239 38.6913H105.789V17.5273H98.8109V12.9921H118.217V17.5273H111.239V38.6913Z" fill="white"/>
</svg>
